<svg xmlns="http://www.w3.org/2000/svg" width="741" height="741" style=""><rect id="backgroundrect" width="100%" height="100%" x="0" y="0" fill="none" stroke="none" class="selected" style=""/>
  <g style="">
    <title>background</title>
    <rect x="-1" y="-1" width="690" height="741" id="canvas_background" fill="none"/>
  </g>

  <g style="" class="currentLayer">
    <title>Layer 1</title>

    <path fill="#1890ff" d="m556.5878677603912,707.9667971326752 c-87,38 -188,43 -278,10 c-49,-19 -93,-45 -131,-83 c-35,-35 -60.000004,-74 -82.000004,-118 c-1,-2 -3,-5 -5,-6 s0,2 -2,2 c1,27 12,52 25,76 c23.000004,47 59.000004,88 101.000004,119 c-54,-37 -97.000004,-88 -125.000004,-148 c-25.999999,-56 -36.999999,-117 -31.999999,-179 c8,-89 48.999999,-171.000015 121.000002,-228.000015 c48,-38 103,-59 163,-64 c53,-3 106,8 154,34 c29,15 52,36 73,61 c37,44 57,98.000015 56,154.000015 c-1,59 -24,115 -67,157 c-22,21 -47,36 -75,46 c-19,6 -38,11 -59,14 c-3,1 -9,2 -8,6 c1,5 7,6 12,8 c27,8 54,7 82,0 c58,-14 103,-49 137,-100 c50,-77 55,-168 25,-250.000015 c-33,-90 -106,-159 -195,-192 c-85,-31 -179,-28 -262,6 c75,-33 159,-41 241,-20.999999 c41,9.999999 76,25.999999 112,48.999999 c63,41 106,97 137,163 c1,2 3,5 5,6 c1,0 2,0 2,-1 c-1,-34 -17,-65 -34,-95 c-23,-41 -55,-73 -91,-101 c43,30 78,68 107,114 c33,55 49,115.000015 51,177.000015 c0,23 -2,46 -6,70 c-5,23 -11,44 -20,66 c-26,59 -65,110 -122,146 c-59,38 -125,52 -193,44 c-90,-11 -170,-66 -207,-149 c-21,-48 -26,-99 -14,-151 c9,-36 26,-67 51,-95.000015 c14,-15 30,-27 48,-38 c14,-8 28,-15 44,-20 c18,-5 35,-8 54,-12 c4,-1 8,-4 4,-8 c-2,-2 -5,-3 -7,-4 c-18,-6 -37,-7 -56,-6 c-22,2 -43,8 -63,16 c-48,21 -87,57 -113,104.000015 c-20,37 -30.000004,77 -33.000004,118 c-3,48 7,96 27.000004,140 c23,51 58,92 105,126 c103,74 231,82 343,37 z" id="svg_1" class=""/></g>
</svg>
